<svg width="20" height="21" viewBox="0 0 20 21" fill="none" xmlns="http://www.w3.org/2000/svg">
<path d="M11.6667 15.9297C11.8877 15.9297 12.0996 15.8419 12.2559 15.6856C12.4122 15.5293 12.5 15.3174 12.5 15.0964V13.4297C12.5 13.2087 12.4122 12.9967 12.2559 12.8404C12.0996 12.6841 11.8877 12.5964 11.6667 12.5964C11.4457 12.5964 11.2337 12.6841 11.0774 12.8404C10.9211 12.9967 10.8333 13.2087 10.8333 13.4297V15.0964C10.8333 15.3174 10.9211 15.5293 11.0774 15.6856C11.2337 15.8419 11.4457 15.9297 11.6667 15.9297ZM8.33333 15.9297C8.55435 15.9297 8.76631 15.8419 8.92259 15.6856C9.07887 15.5293 9.16667 15.3174 9.16667 15.0964V13.4297C9.16667 13.2087 9.07887 12.9967 8.92259 12.8404C8.76631 12.6841 8.55435 12.5964 8.33333 12.5964C8.11232 12.5964 7.90036 12.6841 7.74408 12.8404C7.5878 12.9967 7.5 13.2087 7.5 13.4297V15.0964C7.5 15.3174 7.5878 15.5293 7.74408 15.6856C7.90036 15.8419 8.11232 15.9297 8.33333 15.9297ZM15.8333 5.92968H14.6833L13.2417 3.05468C13.1976 2.9489 13.1322 2.85333 13.0496 2.77396C12.9669 2.69459 12.8688 2.63312 12.7613 2.59339C12.6538 2.55366 12.5393 2.53652 12.4249 2.54306C12.3104 2.54959 12.1986 2.57965 12.0964 2.63136C11.9941 2.68307 11.9036 2.75531 11.8305 2.84357C11.7574 2.93184 11.7033 3.03423 11.6716 3.14435C11.6399 3.25446 11.6312 3.36994 11.6461 3.48356C11.6611 3.59718 11.6993 3.7065 11.7583 3.80468L12.8167 5.92968H7.18333L8.24167 3.80468C8.32255 3.61044 8.32697 3.39279 8.25402 3.19542C8.18107 2.99806 8.03616 2.8356 7.84839 2.74066C7.66061 2.64571 7.44387 2.62532 7.24168 2.68357C7.03949 2.74182 6.86682 2.87439 6.75833 3.05468L5.31667 5.92968H4.16667C3.57766 5.93864 3.01073 6.15531 2.56587 6.54146C2.12102 6.92762 1.82681 7.45846 1.73514 8.04036C1.64347 8.62226 1.76023 9.21784 2.06482 9.72206C2.36941 10.2263 2.84227 10.6067 3.4 10.7964L4.01667 17.013C4.07885 17.6318 4.36945 18.2052 4.83173 18.6213C5.294 19.0373 5.89475 19.2661 6.51667 19.263H13.5C14.1219 19.2661 14.7227 19.0373 15.1849 18.6213C15.6472 18.2052 15.9378 17.6318 16 17.013L16.6167 10.7964C17.1756 10.6062 17.6492 10.2243 17.9536 9.71842C18.258 9.21252 18.3735 8.61521 18.2796 8.0323C18.1858 7.4494 17.8887 6.91851 17.441 6.53366C16.9932 6.14882 16.4237 5.93486 15.8333 5.92968V5.92968ZM14.325 16.8464C14.3043 17.0526 14.2074 17.2438 14.0533 17.3824C13.8992 17.5211 13.699 17.5974 13.4917 17.5964H6.50833C6.30103 17.5974 6.10078 17.5211 5.94669 17.3824C5.7926 17.2438 5.69573 17.0526 5.675 16.8464L5.08333 10.9297H14.9167L14.325 16.8464ZM15.8333 9.26302H4.16667C3.94565 9.26302 3.73369 9.17522 3.57741 9.01894C3.42113 8.86266 3.33333 8.6507 3.33333 8.42968C3.33333 8.20867 3.42113 7.99671 3.57741 7.84043C3.73369 7.68415 3.94565 7.59635 4.16667 7.59635H15.8333C16.0543 7.59635 16.2663 7.68415 16.4226 7.84043C16.5789 7.99671 16.6667 8.20867 16.6667 8.42968C16.6667 8.6507 16.5789 8.86266 16.4226 9.01894C16.2663 9.17522 16.0543 9.26302 15.8333 9.26302Z" fill="white"/>
</svg>
