<svg width="20" height="21" viewBox="0 0 20 21" fill="none" xmlns="http://www.w3.org/2000/svg">
<path d="M15.8333 7.59634H15V5.09634C15 4.4333 14.7366 3.79742 14.2678 3.32858C13.7989 2.85974 13.163 2.59634 12.5 2.59634H4.16667C3.50363 2.59634 2.86774 2.85974 2.3989 3.32858C1.93006 3.79742 1.66667 4.4333 1.66667 5.09634V15.0963C1.66749 15.2609 1.71699 15.4215 1.80894 15.5579C1.90088 15.6943 2.03115 15.8005 2.18333 15.863C2.28223 15.9097 2.39069 15.9325 2.5 15.9297C2.60967 15.9303 2.71839 15.9093 2.81992 15.8678C2.92145 15.8263 3.0138 15.7652 3.09167 15.688L5.43333 13.338H6.66667V14.538C6.66667 15.2011 6.93006 15.8369 7.3989 16.3058C7.86774 16.7746 8.50363 17.038 9.16667 17.038H14.9333L16.9083 19.0213C16.9862 19.0986 17.0785 19.1597 17.1801 19.2012C17.2816 19.2426 17.3903 19.2636 17.5 19.263C17.6093 19.2658 17.7178 19.243 17.8167 19.1963C17.9689 19.1338 18.0991 19.0277 18.1911 18.8912C18.283 18.7548 18.3325 18.5942 18.3333 18.4297V10.0963C18.3333 9.4333 18.0699 8.79742 17.6011 8.32858C17.1323 7.85974 16.4964 7.59634 15.8333 7.59634ZM6.66667 10.0963V11.6713H5.09167C4.982 11.6707 4.87328 11.6917 4.77175 11.7332C4.67021 11.7747 4.57787 11.8358 4.5 11.913L3.33333 13.088V5.09634C3.33333 4.87533 3.42113 4.66337 3.57741 4.50709C3.73369 4.35081 3.94565 4.26301 4.16667 4.26301H12.5C12.721 4.26301 12.933 4.35081 13.0893 4.50709C13.2455 4.66337 13.3333 4.87533 13.3333 5.09634V7.59634H9.16667C8.50363 7.59634 7.86774 7.85974 7.3989 8.32858C6.93006 8.79742 6.66667 9.4333 6.66667 10.0963ZM16.6667 16.4213L15.8333 15.588C15.7562 15.5093 15.6641 15.4466 15.5626 15.4037C15.461 15.3608 15.3519 15.3385 15.2417 15.338H9.16667C8.94565 15.338 8.73369 15.2502 8.57741 15.0939C8.42113 14.9377 8.33333 14.7257 8.33333 14.5047V10.0963C8.33333 9.87533 8.42113 9.66337 8.57741 9.50709C8.73369 9.35081 8.94565 9.26301 9.16667 9.26301H15.8333C16.0543 9.26301 16.2663 9.35081 16.4226 9.50709C16.5789 9.66337 16.6667 9.87533 16.6667 10.0963V16.4213Z" fill="#F2F2F2"/>
</svg>
